<svg width="248" height="184" viewBox="0 0 248 184" fill="none" xmlns="http://www.w3.org/2000/svg">
<rect x="123.947" y="30" width="40.9371" height="40.9371" transform="rotate(45 123.947 30)" fill="#FFC400"/>
<rect x="190.356" y="94.7401" width="40.9371" height="40.9371" transform="rotate(45 190.356 94.7401)" fill="#FFC400"/>
<rect x="58.1877" y="95.9098" width="40.9371" height="40.9371" transform="rotate(45 58.1877 95.9098)" fill="#FFC400"/>
<path d="M165.597 107.674L148.71 124.563L190.062 165.915L206.95 149.026L215.22 157.297L190.062 182.456L132.168 124.563L157.327 99.4034L165.597 107.674ZM247.956 124.563L223.491 149.026L215.22 140.756L231.414 124.563L190.062 83.2101L173.868 99.4034L165.597 91.1329L190.062 66.6691L247.956 124.563Z" fill="#FFC300"/>
<path d="M148.552 90.6289L123.393 115.788L98.2552 90.6504L106.527 82.3789L123.393 99.2461L140.281 82.3574L148.552 90.6289ZM181.287 57.8936L156.823 82.3584L148.551 74.0869L164.745 57.8936L123.393 16.542L82.0414 57.8936L98.2562 74.1084L89.9847 82.3799L65.4994 57.8936L123.393 0L181.287 57.8936Z" fill="#FFC300"/>
<path d="M115.788 125.731L57.8936 183.626L32.1719 157.903L40.4424 149.633L57.8936 167.085L99.2461 125.731L81.7949 108.28L90.0654 100.01L115.788 125.731ZM81.7949 91.7391L73.5244 100.01L57.8936 84.3798L16.542 125.731L32.1719 141.362L23.9014 149.633L0 125.731L57.8936 67.8387L81.7949 91.7391Z" fill="#FFC300"/>
</svg>
